<svg width="171" height="32" viewBox="0 0 171 32" fill="none" xmlns="http://www.w3.org/2000/svg">
<path d="M10.26 11.52H7.5V24H2.37V11.52H0.51V7.26H2.37V6.78C2.37 4.72 2.96 3.16 4.14 2.1C5.32 1.02 7.05 0.479999 9.33 0.479999C9.71 0.479999 9.99 0.489999 10.17 0.509998V4.86C9.19 4.8 8.5 4.94 8.1 5.28C7.7 5.62 7.5 6.23 7.5 7.11V7.26H10.26V11.52ZM11.6505 15.6C11.6505 13.88 11.9705 12.37 12.6105 11.07C13.2705 9.77 14.1605 8.77 15.2805 8.07C16.4005 7.37 17.6505 7.02 19.0305 7.02C20.2105 7.02 21.2405 7.26 22.1205 7.74C23.0205 8.22 23.7105 8.85 24.1905 9.63V7.26H29.3205V24H24.1905V21.63C23.6905 22.41 22.9905 23.04 22.0905 23.52C21.2105 24 20.1805 24.24 19.0005 24.24C17.6405 24.24 16.4005 23.89 15.2805 23.19C14.1605 22.47 13.2705 21.46 12.6105 20.16C11.9705 18.84 11.6505 17.32 11.6505 15.6ZM24.1905 15.63C24.1905 14.35 23.8305 13.34 23.1105 12.6C22.4105 11.86 21.5505 11.49 20.5305 11.49C19.5105 11.49 18.6405 11.86 17.9205 12.6C17.2205 13.32 16.8705 14.32 16.8705 15.6C16.8705 16.88 17.2205 17.9 17.9205 18.66C18.6405 19.4 19.5105 19.77 20.5305 19.77C21.5505 19.77 22.4105 19.4 23.1105 18.66C23.8305 17.92 24.1905 16.91 24.1905 15.63ZM43.2319 7.08C45.1919 7.08 46.7519 7.72 47.9119 9C49.0919 10.26 49.6819 12 49.6819 14.22V24H44.5819V14.91C44.5819 13.79 44.2919 12.92 43.7119 12.3C43.1319 11.68 42.3519 11.37 41.3719 11.37C40.3919 11.37 39.6119 11.68 39.0319 12.3C38.4519 12.92 38.1619 13.79 38.1619 14.91V24H33.0319V7.26H38.1619V9.48C38.6819 8.74 39.3819 8.16 40.2619 7.74C41.1419 7.3 42.1319 7.08 43.2319 7.08ZM52.2267 15.63C52.2267 13.89 52.5767 12.37 53.2767 11.07C53.9967 9.77 54.9867 8.77 56.2467 8.07C57.5267 7.37 58.9867 7.02 60.6267 7.02C62.7267 7.02 64.4767 7.57 65.8767 8.67C67.2967 9.77 68.2267 11.32 68.6667 13.32H63.2067C62.7467 12.04 61.8567 11.4 60.5367 11.4C59.5967 11.4 58.8467 11.77 58.2867 12.51C57.7267 13.23 57.4467 14.27 57.4467 15.63C57.4467 16.99 57.7267 18.04 58.2867 18.78C58.8467 19.5 59.5967 19.86 60.5367 19.86C61.8567 19.86 62.7467 19.22 63.2067 17.94H68.6667C68.2267 19.9 67.2967 21.44 65.8767 22.56C64.4567 23.68 62.7067 24.24 60.6267 24.24C58.9867 24.24 57.5267 23.89 56.2467 23.19C54.9867 22.49 53.9967 21.49 53.2767 20.19C52.5767 18.89 52.2267 17.37 52.2267 15.63ZM88.5108 7.26L78.0108 31.95H72.4908L76.3308 23.43L69.5208 7.26H75.2508L79.1208 17.73L82.9608 7.26H88.5108Z" fill="#1AB5BF"/>
<path d="M98.7659 11.52H96.0059V24H90.8759V11.52H89.0159V7.26H90.8759V6.78C90.8759 4.72 91.4659 3.16 92.6459 2.1C93.8259 1.02 95.5559 0.479999 97.8359 0.479999C98.2159 0.479999 98.4959 0.489999 98.6759 0.509998V4.86C97.6959 4.8 97.0059 4.94 96.6059 5.28C96.2059 5.62 96.0059 6.23 96.0059 7.11V7.26H98.7659V11.52ZM108.796 24.24C107.156 24.24 105.676 23.89 104.356 23.19C103.056 22.49 102.026 21.49 101.266 20.19C100.526 18.89 100.156 17.37 100.156 15.63C100.156 13.91 100.536 12.4 101.296 11.1C102.056 9.78 103.096 8.77 104.416 8.07C105.736 7.37 107.216 7.02 108.856 7.02C110.496 7.02 111.976 7.37 113.296 8.07C114.616 8.77 115.656 9.78 116.416 11.1C117.176 12.4 117.556 13.91 117.556 15.63C117.556 17.35 117.166 18.87 116.386 20.19C115.626 21.49 114.576 22.49 113.236 23.19C111.916 23.89 110.436 24.24 108.796 24.24ZM108.796 19.8C109.776 19.8 110.606 19.44 111.286 18.72C111.986 18 112.336 16.97 112.336 15.63C112.336 14.29 111.996 13.26 111.316 12.54C110.656 11.82 109.836 11.46 108.856 11.46C107.856 11.46 107.026 11.82 106.366 12.54C105.706 13.24 105.376 14.27 105.376 15.63C105.376 16.97 105.696 18 106.336 18.72C106.996 19.44 107.816 19.8 108.796 19.8ZM125.408 10.05C126.008 9.13 126.758 8.41 127.658 7.89C128.558 7.35 129.558 7.08 130.658 7.08V12.51H129.248C127.968 12.51 127.008 12.79 126.368 13.35C125.728 13.89 125.408 14.85 125.408 16.23V24H120.278V7.26H125.408V10.05ZM154.47 7.08C156.55 7.08 158.2 7.71 159.42 8.97C160.66 10.23 161.28 11.98 161.28 14.22V24H156.18V14.91C156.18 13.83 155.89 13 155.31 12.42C154.75 11.82 153.97 11.52 152.97 11.52C151.97 11.52 151.18 11.82 150.6 12.42C150.04 13 149.76 13.83 149.76 14.91V24H144.66V14.91C144.66 13.83 144.37 13 143.79 12.42C143.23 11.82 142.45 11.52 141.45 11.52C140.45 11.52 139.66 11.82 139.08 12.42C138.52 13 138.24 13.83 138.24 14.91V24H133.11V7.26H138.24V9.36C138.76 8.66 139.44 8.11 140.28 7.71C141.12 7.29 142.07 7.08 143.13 7.08C144.39 7.08 145.51 7.35 146.49 7.89C147.49 8.43 148.27 9.2 148.83 10.2C149.41 9.28 150.2 8.53 151.2 7.95C152.2 7.37 153.29 7.08 154.47 7.08ZM167.268 24.24C166.368 24.24 165.628 23.98 165.048 23.46C164.488 22.92 164.208 22.26 164.208 21.48C164.208 20.68 164.488 20.01 165.048 19.47C165.628 18.93 166.368 18.66 167.268 18.66C168.148 18.66 168.868 18.93 169.428 19.47C170.008 20.01 170.298 20.68 170.298 21.48C170.298 22.26 170.008 22.92 169.428 23.46C168.868 23.98 168.148 24.24 167.268 24.24Z" fill="#2F2E41"/>
</svg>
